PathFileType	4	(X/Y/Z)	D:\TRACE\spot_10-12-23\spot_arm_body_motion_3_4-platform.trc
DataRate	CameraRate	NumFrames	NumMarkers	Units	OrigDataRate	OrigDataStartFrame	OrigNumFrames
100.00	100.00	      72	5	mm	100.00	1	      7000
Frame#	Time	Left_Front			Right_Front			Left_Aft			Right_Aft			Post			
		X1	Y1	Z1	X2	Y2	Z2	X3	Y3	Z3	X4	Y4	Z4	X5	Y5	Z5	

1	0.000	-820.25098	123.40016	-602.52203	752.70331	126.69547	-595.54968	-736.58124	-79.21771	517.31268	680.78717	-89.98104	602.53149	-37.33817	905.99237	-784.31763	
2	0.010	-820.31732	123.48869	-602.54486	752.69061	126.72211	-595.59344	-736.58606	-79.19725	517.29218	680.79724	-89.96870	602.52539	-37.37756	905.96899	-784.28845	
3	0.020	-820.26501	123.39761	-602.52075	752.70300	126.69269	-595.54535	-736.56573	-79.20270	517.33197	680.80872	-89.94758	602.53528	-37.38721	905.94421	-784.26300	
4	0.030	-820.23932	123.42205	-602.55371	752.67432	126.72117	-595.55768	-736.61853	-79.14874	517.31073	680.81506	-89.96388	602.48645	-37.39927	905.94983	-784.27362	
5	0.040	-820.26746	123.36678	-602.52606	752.73077	126.70166	-595.57831	-736.58148	-79.14411	517.32385	680.79034	-89.96605	602.51733	-37.33275	905.94128	-784.18408	
6	0.050	-820.22906	123.39517	-602.54291	752.71478	126.70267	-595.55792	-736.59772	-79.18756	517.31653	680.75336	-89.96532	602.53644	-37.38055	905.94440	-784.18823	
7	0.060	-820.29681	123.41930	-602.51239	752.69305	126.72370	-595.58466	-736.59259	-79.18873	517.31647	680.72900	-89.94169	602.52936	-37.37369	905.94678	-784.25537	
8	0.070	-820.28961	123.41980	-602.48248	752.70752	126.72399	-595.54883	-736.52179	-79.30189	517.25232	680.81555	-89.96331	602.53259	-37.35328	906.00446	-784.27856	
9	0.080	-820.26520	123.40067	-602.51190	752.72668	126.75453	-595.58264	-736.55530	-79.27777	517.31030	680.79480	-89.99213	602.49939	-37.35097	905.99457	-784.33716	
10	0.090	-820.26471	123.42383	-602.49017	752.68573	126.72475	-595.54285	-736.49756	-79.27905	517.30090	680.83478	-90.01531	602.49933	-37.36156	905.97736	-784.28583	
11	0.100	-820.21429	123.38950	-602.53723	752.75311	126.71078	-595.55237	-736.52533	-79.27660	517.28467	680.77515	-89.97096	602.54236	-37.33682	905.98248	-784.28204	
12	0.110	-820.25598	123.42128	-602.52216	752.71979	126.72108	-595.56812	-736.61078	-79.20796	517.28387	680.76672	-89.95348	602.50970	-37.33812	905.96234	-784.15997	
13	0.120	-820.26337	123.40147	-602.50336	752.74792	126.70811	-595.54840	-736.53772	-79.24767	517.29590	680.74646	-89.99085	602.49347	-37.40796	905.92383	-784.25824	
14	0.130	-820.26758	123.43134	-602.50848	752.74487	126.70701	-595.57507	-736.60046	-79.17590	517.32574	680.73041	-89.90160	602.52612	-37.34340	905.89093	-784.21051	
15	0.140	-820.31476	123.41390	-602.49860	752.69287	126.70438	-595.55713	-736.57953	-79.16436	517.32556	680.78229	-89.99429	602.51166	-37.40595	905.93420	-784.29382	
16	0.150	-820.31628	123.41548	-602.48999	752.74341	126.72534	-595.53369	-736.57721	-79.26417	517.28009	680.80267	-89.98551	602.51721	-37.30862	905.98090	-784.28302	
17	0.160	-820.27484	123.39960	-602.50562	752.70850	126.69553	-595.57037	-736.57550	-79.18600	517.29199	680.79303	-89.97102	602.52747	-37.31979	905.99426	-784.35498	
18	0.170	-820.28339	123.43325	-602.49890	752.71033	126.69529	-595.55432	-736.60229	-79.23380	517.33368	680.77887	-90.00009	602.51984	-37.37770	906.04224	-784.31396	
19	0.180	-820.29773	123.45684	-602.51984	752.73700	126.75556	-595.56433	-736.58380	-79.20315	517.34344	680.09210	-90.41363	602.75055	-37.33297	905.96558	-784.23676	
20	0.190	-820.28113	123.43176	-602.49084	752.69354	126.71400	-595.58380	-736.52283	-79.20505	517.32129	680.01941	-90.61792	602.65076	-37.33432	906.00293	-784.24121	
21	0.200	-820.29968	123.41199	-602.50220	752.74036	126.70057	-595.55438	-736.59528	-79.18249	517.32416	680.07819	-90.36870	602.74103	-37.41393	906.01733	-784.23065	
22	0.210	-820.23712	123.41113	-602.51599	752.68762	126.70301	-595.53619	-736.60645	-79.18756	517.30420	680.17432	-90.48362	602.63000	-37.35033	905.96948	-784.23779	
23	0.220	-820.24908	123.44097	-602.56573	752.68866	126.72028	-595.58502	-736.60425	-79.27416	517.30579	680.15125	-90.53059	602.58350	-37.38699	905.97778	-784.21710	
24	0.230	-820.28339	123.41003	-602.55200	752.66840	126.69402	-595.57617	-736.54053	-79.27017	517.29224	680.11755	-90.46248	602.64825	-37.37963	905.94537	-784.22968	
25	0.240	-820.27112	123.40154	-602.49451	752.67365	126.70040	-595.55780	-736.58771	-79.19006	517.31769	680.19641	-90.42623	602.64758	-37.35637	905.91791	-784.18512	
26	0.250	-820.26141	123.44262	-602.54230	752.69482	126.72760	-595.52740	-736.59772	-79.18376	517.31732	680.22729	-90.46834	602.57947	-37.32297	905.96600	-784.22754	
27	0.260	-820.27649	123.40848	-602.50751	752.66986	126.74359	-595.54614	-736.56653	-79.25748	517.29382	680.09387	-90.35973	602.70367	-37.33087	905.96472	-784.31989	
28	0.270	-820.23639	123.42155	-602.52020	752.71405	126.71506	-595.56976	-736.61920	-79.17199	517.29578	680.15942	-90.54392	602.64069	-37.30280	906.03613	-784.33960	
29	0.280	-820.22150	123.40215	-602.52979	752.71124	126.73129	-595.52734	-736.59680	-79.18979	517.28638	680.10913	-90.42506	602.68872	-37.39185	906.01294	-784.32489	
30	0.290	-820.27740	123.42212	-602.51038	752.65857	126.72114	-595.55475	-736.61090	-79.21513	517.32678	680.17029	-90.46557	602.66156	-37.39076	905.98291	-784.30530	
31	0.300	-820.25098	123.40179	-602.49500	752.70679	126.70955	-595.52148	-736.57477	-79.21120	517.29889	680.17444	-90.58825	602.56818	-37.37266	905.97656	-784.24622	
32	0.310	-820.24896	123.39282	-602.51764	752.71503	126.70779	-595.53845	-736.57208	-79.19913	517.32306	680.26154	-90.51933	602.55554	-37.32413	905.93549	-784.13013	
33	0.320	-820.25464	123.40688	-602.54590	752.71625	126.75771	-595.55011	-736.60339	-79.18007	517.32593	680.22589	-90.48241	602.58087	-37.39322	905.95288	-784.20416	
34	0.330	-820.24469	123.39457	-602.53491	752.64832	126.71820	-595.58051	-736.59277	-79.16003	517.30200	680.21460	-90.47019	602.59662	-37.26742	905.88843	-784.15021	
35	0.340	-820.28528	123.43161	-602.53906	752.68262	126.72896	-595.56982	-736.58368	-79.15922	517.33417	680.22144	-90.48241	602.57721	-37.40287	906.00372	-784.25378	
36	0.350	-820.23755	123.39553	-602.54456	752.67072	126.72142	-595.58331	-736.58173	-79.21115	517.29584	680.22424	-90.49402	602.55096	-37.35903	905.96716	-784.28833	
37	0.360	-820.24445	123.38596	-602.54364	752.66168	126.73727	-595.57947	-736.57959	-79.16364	517.33606	680.18774	-90.51956	602.57251	-37.34300	906.01428	-784.34717	
38	0.370	-820.24347	123.37531	-602.55389	752.72174	126.69534	-595.52557	-736.61047	-79.20612	517.31512	680.24530	-90.50121	602.59235	-37.33277	906.03229	-784.37335	
39	0.380	-820.20758	123.39885	-602.55920	752.71375	126.73093	-595.55768	-736.58179	-79.19785	517.33453	680.24847	-90.52168	602.60455	-37.40958	906.00037	-784.27679	
40	0.390	-820.26257	123.42113	-602.52289	752.73389	126.72669	-595.54523	-736.57092	-79.19563	517.36597	680.23419	-90.53137	602.57281	-37.36709	906.00177	-784.32764	
41	0.400	-820.27582	123.39891	-602.51105	752.72174	126.72002	-595.55383	-736.57080	-79.22407	517.34668	680.23633	-90.49973	602.60925	-37.34101	905.97931	-784.27216	
42	0.410	-820.26831	123.40047	-602.51056	752.70721	126.71776	-595.56659	-736.58112	-79.19693	517.35706	680.23657	-90.46142	602.59052	-37.39045	905.94556	-784.22705	
43	0.420	-820.30182	123.41269	-602.51410	752.69769	126.68680	-595.55768	-736.56830	-79.19949	517.33777	680.18927	-90.46819	602.59576	-37.38848	905.97601	-784.19153	
44	0.430	-820.28821	123.41682	-602.49396	752.70789	126.69468	-595.52539	-736.56989	-79.21656	517.29272	680.26233	-90.47655	602.59821	-37.37174	905.94995	-784.20782	
45	0.440	-820.25928	123.39441	-602.54401	752.66034	126.70158	-595.55542	-736.52386	-79.20869	517.31531	680.20831	-90.48678	602.63293	-37.37738	905.93616	-784.18964	
46	0.450	-820.28632	123.44138	-602.49109	752.68799	126.74326	-595.56488	-736.57770	-79.16583	517.33112	680.25269	-90.41769	602.63708	-37.36921	905.97186	-784.22168	
47	0.460	-820.24603	123.40565	-602.53314	752.69916	126.74827	-595.56396	-736.55994	-79.20070	517.32520	680.16663	-90.40286	602.63733	-37.40406	906.00482	-784.27557	
48	0.470	-820.27563	123.42428	-602.48627	752.71124	126.72659	-595.54059	-736.55505	-79.21083	517.31842	680.25824	-90.39722	602.63885	-37.33716	906.01178	-784.28864	
49	0.480	-820.27557	123.41528	-602.50183	752.68610	126.72990	-595.57092	-736.57599	-79.17199	517.36859	680.20129	-90.41217	602.63513	-37.35892	905.98688	-784.29700	
50	0.490	-820.24200	123.42091	-602.50635	752.69287	126.73734	-595.56091	-736.60535	-79.18668	517.29877	680.27753	-90.35231	602.63190	-37.33463	906.02014	-784.32874	
51	0.500	-820.24829	123.39949	-602.49268	752.73572	126.73962	-595.54340	-736.61383	-79.17556	517.32349	680.32990	-90.34536	602.61578	-37.29718	906.03143	-784.32861	
52	0.510	-820.25586	123.41670	-602.54919	752.69202	126.70580	-595.53638	-736.51654	-79.25128	517.31573	680.31421	-90.38425	602.60645	-37.38408	905.96112	-784.20697	
53	0.520	-820.28888	123.41520	-602.49469	752.69012	126.70043	-595.59607	-736.58551	-79.20549	517.31171	680.28564	-90.31938	602.62463	-37.36866	905.97534	-784.29773	
54	0.530	-820.29877	123.38783	-602.49561	752.67487	126.73284	-595.60687	-736.56329	-79.19885	517.32495	680.25000	-90.31145	602.66992	-37.33807	905.90149	-784.20343	
55	0.540	-820.26196	123.40871	-602.51385	752.72833	126.73135	-595.58942	-736.57416	-79.20218	517.32074	680.29749	-90.35945	602.62207	-37.32509	905.99103	-784.25684	
56	0.550	-820.23175	123.38017	-602.50244	752.71161	126.70234	-595.55493	-736.60626	-79.14761	517.31506	680.29254	-90.32828	602.62305	-37.35192	906.00201	-784.22870	
57	0.560	-820.24823	123.43462	-602.52014	752.71167	126.73186	-595.54932	-736.56323	-79.18481	517.32855	680.31055	-90.33781	602.62885	-37.37183	906.04016	-784.28693	
58	0.570	-820.29065	123.42100	-602.48029	752.72229	126.69206	-595.55157	-736.55377	-79.22140	517.33679	680.30701	-90.35390	602.61456	-37.40786	905.99268	-784.26221	
59	0.580	-820.27808	123.43066	-602.51880	752.68835	126.74463	-595.56824	-736.61145	-79.19778	517.33118	680.28937	-90.34933	602.63153	-37.32445	905.98138	-784.28088	
60	0.590	-820.28778	123.42494	-602.51733	752.71649	126.67093	-595.53900	-736.60248	-79.21980	517.30096	680.32178	-90.38004	602.63818	-37.36065	905.96515	-784.31201	
61	0.600	-820.26038	123.42224	-602.51459	752.70099	126.72289	-595.55017	-736.58356	-79.18215	517.31738	680.31512	-90.32830	602.62482	-37.39965	905.98181	-784.29608	
62	0.610	-820.26642	123.42059	-602.53296	752.71313	126.71711	-595.56250	-736.59412	-79.17066	517.30847	680.31415	-90.34493	602.61536	-37.38224	905.96613	-784.28442	
63	0.620	-820.23328	123.41110	-602.51068	752.70831	126.73558	-595.56891	-736.53961	-79.17667	517.33807	680.33081	-90.36610	602.60345	-37.33559	905.98694	-784.29010	
64	0.630	-820.26025	123.41049	-602.52667	752.71179	126.70622	-595.59045	-736.60046	-79.17902	517.34003	680.30634	-90.38540	602.60522	-37.35700	905.99579	-784.29260	
65	0.640	-820.28857	123.40900	-602.49951	752.71588	126.71518	-595.55524	-736.58405	-79.22837	517.32867	680.30939	-90.39278	602.59393	-37.32685	905.94519	-784.24237	
66	0.650	-820.30316	123.41872	-602.49634	752.66467	126.69074	-595.56952	-736.58417	-79.18075	517.33124	680.29425	-90.34731	602.61914	-37.37901	905.96326	-784.24646	
67	0.660	-820.28693	123.49259	-602.54260	752.71942	126.73164	-595.56244	-736.56970	-79.21110	517.29358	680.25513	-90.32890	602.59900	-37.38541	906.02087	-784.24615	
68	0.670	-820.27081	123.45592	-602.53442	752.68726	126.72263	-595.58252	-736.53827	-79.20246	517.29407	680.29877	-90.34783	602.64270	-37.33837	906.01459	-784.25861	
69	0.680	-820.22601	123.40508	-602.53522	752.66595	126.72858	-595.59314	-736.59656	-79.16682	517.30389	680.25446	-90.35090	602.61871	-37.40495	906.02148	-784.26727	
70	0.690	-820.23981	123.40153	-602.49933	752.64014	126.73634	-595.55658	-736.54120	-79.22312	517.31476	680.26007	-90.36787	602.59021	-37.36961	905.98993	-784.28925	
71	0.700	-820.29913	123.41857	-602.50574	752.67682	126.68533	-595.58527	-736.59515	-79.17484	517.31097	680.27496	-90.34941	602.61572	-37.36904	905.98145	-784.22607	
72	0.710	-820.23041	123.40533	-602.53351	752.70551	126.71688	-595.56604	-736.57349	-79.19957	517.29279	680.28699	-90.39227	602.61688	-37.40572	905.98987	-784.23212	
